<?xml version="1.0" standalone="no"?>
<!DOCTYPE svg PUBLIC "-//W3C//DTD SVG 20010904//EN"
 "http://www.w3.org/TR/2001/REC-SVG-20010904/DTD/svg10.dtd">
<svg version="1.0" xmlns="http://www.w3.org/2000/svg"
 width="1024.000000pt" height="1024.000000pt" viewBox="0 0 1024.000000 1024.000000"
 preserveAspectRatio="xMidYMid meet">
<metadata>
Created by potrace 1.14, written by Peter Selinger 2001-2017
</metadata>
<g transform="translate(0.000000,1024.000000) scale(0.100000,-0.100000)"
fill="#000000" stroke="none">
<path d="M310 9985 c-14 -15 -26 -45 -31 -76 -9 -60 -14 -3663 -4 -3678 9 -16
51 8 66 38 12 22 14 322 17 1766 l2 1739 21 41 c47 90 72 102 230 109 203 9
320 29 297 51 -12 12 -179 26 -369 30 l-206 4 -23 -24z"/>
<path d="M5080 7984 c-82 -10 -421 -66 -488 -81 -40 -8 -113 -35 -162 -59 -49
-24 -111 -49 -137 -57 -77 -23 -117 -42 -168 -81 -26 -21 -76 -50 -111 -66
-34 -15 -82 -46 -106 -67 -23 -22 -65 -55 -93 -73 -93 -62 -339 -297 -413
-393 -15 -20 -48 -62 -73 -94 -25 -32 -56 -76 -69 -98 -14 -22 -39 -60 -58
-84 -18 -25 -47 -71 -64 -104 -16 -33 -45 -82 -63 -109 -18 -26 -43 -78 -55
-115 -12 -38 -37 -94 -56 -126 -35 -59 -74 -165 -74 -199 0 -17 -38 -139 -74
-236 -25 -67 -45 -201 -61 -417 -19 -253 -19 -399 0 -650 20 -259 36 -360 80
-475 19 -52 44 -135 55 -183 11 -52 36 -122 60 -169 23 -44 53 -112 67 -151
14 -40 47 -105 74 -145 26 -40 51 -83 55 -94 9 -31 170 -266 215 -315 22 -24
39 -47 39 -52 0 -5 30 -40 68 -78 37 -38 79 -82 93 -98 41 -47 169 -158 224
-194 28 -19 68 -51 90 -72 22 -21 69 -52 105 -70 36 -17 90 -50 121 -75 38
-29 86 -53 144 -73 47 -16 109 -43 137 -60 58 -36 125 -56 363 -107 291 -63
323 -66 520 -61 155 4 199 8 315 35 74 17 197 44 273 61 107 23 150 38 195 65
31 20 99 51 151 70 52 19 111 49 131 65 21 17 69 47 106 67 38 21 92 56 119
79 28 23 73 56 100 75 28 18 66 51 85 72 19 21 50 48 68 62 33 24 157 156 264
280 34 40 60 80 63 100 9 46 -16 99 -67 144 -55 48 -178 165 -334 320 -68 67
-135 127 -150 132 -45 18 -98 -4 -141 -58 -43 -53 -190 -200 -284 -283 -35
-31 -100 -75 -144 -98 -44 -23 -99 -57 -122 -75 -32 -26 -64 -39 -135 -56 -51
-12 -124 -35 -163 -51 -115 -48 -215 -62 -410 -56 -179 5 -199 8 -400 76 -49
17 -115 37 -146 46 -33 9 -76 30 -105 54 -27 21 -80 53 -118 70 -42 19 -92 52
-125 84 -31 29 -69 61 -86 71 -16 10 -43 35 -60 57 -16 22 -44 51 -62 65 -18
14 -47 46 -64 72 -18 26 -50 66 -71 90 -22 24 -46 60 -55 80 -8 20 -31 59 -50
86 -38 54 -83 142 -83 165 0 8 -23 60 -50 115 -47 95 -52 113 -87 311 -33 193
-36 226 -36 405 0 179 2 212 36 405 34 194 40 216 80 295 24 47 52 111 61 142
9 32 37 87 62 124 25 37 54 86 64 109 10 23 39 65 64 94 25 28 54 64 63 79 22
34 209 222 221 222 5 0 38 25 73 57 36 32 93 70 134 88 39 18 84 44 100 57 49
41 92 59 234 95 75 19 172 44 216 56 65 17 108 21 235 21 137 -1 166 -4 250
-28 52 -14 149 -40 214 -57 129 -33 146 -39 191 -77 17 -14 66 -42 110 -63 49
-22 102 -57 135 -88 30 -28 59 -51 64 -51 7 0 160 -155 264 -267 37 -40 43
-43 93 -43 53 0 53 0 124 73 77 79 361 348 412 391 40 34 57 87 43 138 -23 82
-371 441 -520 537 -25 16 -63 45 -85 65 -21 20 -71 51 -110 70 -39 18 -84 45
-100 58 -38 32 -95 60 -165 83 -30 9 -90 35 -134 57 -89 45 -175 69 -326 92
-58 9 -141 23 -185 31 -80 15 -359 27 -425 19z"/>
<path d="M9921 4424 c-23 -30 -32 -68 -34 -145 0 -30 0 -875 1 -1879 1 -1004
-1 -1836 -5 -1850 -10 -39 -72 -128 -106 -152 -26 -18 -48 -23 -122 -26 -49
-1 -103 -7 -119 -12 -16 -6 -49 -10 -72 -10 -31 0 -44 -4 -44 -14 0 -16 89
-27 255 -31 61 -1 121 -7 135 -12 24 -10 104 -4 127 10 6 4 18 22 26 40 15 30
16 233 17 2058 0 1113 1 2030 0 2037 0 21 -38 13 -59 -14z"/>
</g>
</svg>
